<svg width="213" height="71" viewBox="0 0 213 71" fill="none" xmlns="http://www.w3.org/2000/svg">
<path d="M155.763 52.0194C154.893 42.2915 146.567 40.6341 138.437 37.9417C131.09 35.5072 124.19 35.2875 123.446 30.0758C122.658 24.5445 128.142 21.1948 133.887 22.2015C140.118 23.2932 141.304 28.0407 139.865 31.1175C142.74 34.6452 149.881 34.2558 152.074 31.8097C153.883 29.7945 154.492 26.4631 150.703 23.3015C146.056 19.4226 136.527 17.5722 127.409 19.2678C118.436 20.9319 111.332 26.1204 112.136 34.77C113.001 44.0753 119.689 46.7777 130.285 49.5799C140.537 52.2957 143.9 55.1262 143.229 59.8537C142.63 64.0704 139.015 67.5266 131.278 66.6413C123.541 65.7561 119.48 59.8853 121.059 53.2625C112.254 51.2573 108.448 59.8537 115.788 65.5314C122.849 70.9961 136.715 71.4654 144.527 68.5084C151.518 65.8626 156.566 61.0235 155.763 52.0194Z" fill="#1E1E1C"/>
<path d="M95.0362 15.2161C99.8197 15.2161 103.698 11.8132 103.698 7.61646C103.698 3.41976 99.8197 0.0151367 95.0362 0.0151367C90.2527 0.0151367 86.3727 3.41809 86.3727 7.61646C86.3727 11.8148 90.251 15.2161 95.0362 15.2161Z" fill="#1E1E1C"/>
<path d="M101.871 19.3743C99.7187 20.3234 97.392 20.8136 95.0395 20.8136C92.6871 20.8136 90.3604 20.3234 88.2079 19.3743L88.1912 69.55H101.881L101.871 19.3743Z" fill="#1E1E1C"/>
<path d="M192.289 17.8752C187.351 17.8752 182.683 19.3945 179.006 22.1485V1.52441H164.967V69.5436H178.955V38.0334C178.955 30.031 180.196 26.2404 184.264 23.2135C187.959 20.4645 193.171 20.9537 196.006 22.9223C199.435 25.3035 199.28 30.9912 199.28 35.534V69.5503H212.97V35.3177C212.97 23.1136 204.606 17.8752 192.289 17.8752Z" fill="#1E1E1C"/>
<path d="M62.8661 69.5503H49.1828L38.4211 38.5094L30.8258 69.5503H17.1375L3.05176e-05 19.3779H14.0527L28.5646 62.7843C33.7558 48.234 37.0102 34.6837 31.9688 19.3779H45.6538L62.8661 69.5503Z" fill="#1E1E1C"/>
<path d="M69.4551 17.8035C66.2206 23.3846 62.7265 27.4898 58.0379 31.5933C62.7398 36.5405 67.0375 43.418 69.4551 49.971C71.8776 43.418 76.1703 36.5405 80.8739 31.5933C76.1819 27.4898 72.6879 23.3846 69.4551 17.8035Z" fill="#1E1E1C"/>
</svg>
